<svg width="20" height="20" viewBox="0 0 20 20" fill="none" xmlns="http://www.w3.org/2000/svg">
<g clip-path="url(#clip0)">
<path d="M19.3256 0.77816C18.9105 0.298447 18.3317 -0.000405208 17.6974 4.12377e-07H16.6452H16.1115H3.88852H3.35516H2.30266C1.66871 -0.000405208 1.08953 0.298447 0.674494 0.77816C0.258712 1.25702 -0.000312218 1.9253 2.82445e-07 2.65668V4.04813C2.82445e-07 5.76062 0.903635 7.30049 2.28168 7.93641L2.30227 7.94578L4.69517 8.79159C4.81419 8.96952 4.93962 9.14371 5.07962 9.3102C5.96833 10.3646 6.83216 11.0727 7.42736 11.6475C7.72509 11.9336 7.95185 12.1858 8.0847 12.4002C8.15189 12.5072 8.19627 12.6028 8.22435 12.6909C8.25209 12.7795 8.26521 12.8606 8.26521 12.9553C8.26521 14.2918 8.26521 13.5195 8.26521 14.856C8.26521 15.1323 8.23142 15.3697 8.17529 15.5657C8.08966 15.8605 7.95959 16.0601 7.7997 16.1962C7.63837 16.3307 7.43728 16.411 7.16861 16.4123C6.21064 16.4123 6.20138 16.4123 6.20068 16.4123H5.66696V20H14.333V16.4123H13.7993C13.7993 16.4123 13.7897 16.4123 12.8317 16.4123C12.6526 16.4123 12.503 16.375 12.3762 16.3119C12.1867 16.2155 12.04 16.0646 11.9245 15.8301C11.8108 15.596 11.7347 15.2713 11.7347 14.856C11.7347 13.5195 11.7347 14.2918 11.7347 12.9553C11.7351 12.8606 11.7483 12.7795 11.7756 12.6909C11.8236 12.538 11.927 12.356 12.1032 12.1432C12.3651 11.8234 12.7787 11.452 13.272 10.9989C13.7652 10.5443 14.3369 10.0027 14.9204 9.3102C15.0604 9.14371 15.1862 8.96952 15.3049 8.79159L17.6981 7.94578L17.7184 7.93641C19.0967 7.30049 20 5.76062 20 4.04813V2.65668C20.0004 1.9253 19.7417 1.25702 19.3256 0.77816ZM2.66399 6.78639C1.69891 6.33335 1.06711 5.25143 1.06711 4.04813V2.65668C1.06742 2.26147 1.20461 1.90849 1.42883 1.64894C1.65446 1.38984 1.95969 1.2316 2.30262 1.23115H3.35337C3.35227 1.51774 3.35083 1.80469 3.35083 2.09007C3.35157 3.41018 3.37751 4.71231 3.60278 5.94391C3.6838 6.385 3.79216 6.81676 3.9343 7.23532L2.66399 6.78639ZM15.3536 5.68887C15.2548 6.22681 15.1159 6.72653 14.9219 7.1861C14.7278 7.64616 14.4798 8.06675 14.1554 8.45213C13.3406 9.42008 12.5361 10.0806 11.8887 10.7029C11.5653 11.0157 11.2775 11.3196 11.0508 11.6787C10.9381 11.8583 10.8418 12.0534 10.7736 12.2682C10.7054 12.4822 10.6674 12.7159 10.6677 12.9553C10.6677 14.2918 10.6677 13.5195 10.6677 14.856C10.6677 15.2479 10.7154 15.6161 10.812 15.9527C10.9559 16.457 11.2157 16.8916 11.5714 17.1905C11.926 17.4906 12.367 17.6451 12.8318 17.6435C13.0062 17.6435 13.1487 17.6435 13.266 17.6435V18.7689H6.73408V17.6435C6.85134 17.6435 6.99384 17.6435 7.16865 17.6435C7.47888 17.6439 7.77736 17.5766 8.04775 17.4418C8.45427 17.2401 8.78935 16.8822 9.00646 16.4312C9.22502 15.9802 9.33232 15.4431 9.33232 14.8561C9.33232 13.5195 9.33232 14.2919 9.33232 12.9554C9.33271 12.716 9.29467 12.4823 9.22646 12.2683C9.10635 11.8911 8.9042 11.5791 8.66998 11.2946C8.31603 10.8678 7.87826 10.4845 7.39396 10.0372C6.90997 9.59111 6.37911 9.08684 5.84466 8.45218C5.52025 8.06679 5.27224 7.64616 5.07821 7.18615C4.78755 6.4974 4.61981 5.71555 4.52743 4.85586C4.4347 3.99734 4.41802 3.06464 4.41802 2.09012C4.41802 1.80722 4.41907 1.52026 4.42048 1.23119H15.58C15.5807 1.52026 15.5821 1.80717 15.5821 2.09012C15.5828 3.38972 15.5512 4.61434 15.3536 5.68887ZM18.9333 4.04813C18.9333 5.25143 18.3011 6.33335 17.336 6.78639L16.065 7.23527C16.3066 6.52521 16.4488 5.77617 16.5316 5.00788C16.6335 4.05999 16.6488 3.08014 16.6492 2.09003C16.6492 1.80469 16.6478 1.5177 16.6467 1.2311H17.6975C18.0403 1.23155 18.3459 1.38975 18.5712 1.64889C18.7954 1.9084 18.933 2.26097 18.9333 2.65663V4.04813Z" fill="white"/>
</g>
<defs>
<clipPath id="clip0">
<rect width="20" height="20" fill="white"/>
</clipPath>
</defs>
</svg>
