<svg width="20" height="20" viewBox="0 0 20 20" fill="none" xmlns="http://www.w3.org/2000/svg">
<g clip-path="url(#clip0)">
<path d="M19.999 8.16461C19.999 7.98285 19.9711 7.79852 19.9135 7.61961L19.9132 7.61906C19.6758 6.88274 18.9913 6.38406 18.2177 6.38379H13.2171L11.6948 1.6441C11.458 0.907464 10.7733 0.407698 9.99911 0.407425C9.22431 0.407698 8.54005 0.907464 8.30325 1.64383L9.07302 1.89133L8.30325 1.6441L6.78099 6.38379H1.78032C1.00677 6.38406 0.322235 6.88274 0.0846963 7.61906L0.08454 7.61961C0.0269619 7.79856 -0.00100687 7.98289 -0.00100687 8.16461C-0.00128031 8.72735 0.266571 9.27094 0.742079 9.61227L0.741649 9.61172L4.79251 12.52L3.23317 17.254L3.23345 17.2532C3.1729 17.4364 3.14352 17.6249 3.14352 17.8114C3.14329 18.3707 3.40821 18.9104 3.8772 19.252L3.87778 19.2523C4.18934 19.4785 4.55817 19.5928 4.92481 19.5925C5.29356 19.5928 5.66481 19.4776 5.97735 19.2487L5.97763 19.2484L9.99911 16.3014L14.0203 19.2484L14.0211 19.2487C14.3333 19.4773 14.7044 19.5928 15.0733 19.5925C15.4394 19.5928 15.8086 19.4788 16.1203 19.2523L16.1207 19.252C16.59 18.9101 16.8551 18.3705 16.8545 17.8109C16.8545 17.6249 16.8256 17.4366 16.7653 17.254L15.2057 12.52L19.2562 9.61168L19.2558 9.61196C19.731 9.27094 19.9993 8.72735 19.999 8.16461ZM18.3136 8.29805H18.3133L13.7805 11.5527C13.4928 11.7592 13.3734 12.1264 13.4841 12.4624L15.2296 17.7597L15.2374 17.8108C15.2374 17.8625 15.2133 17.9125 15.169 17.9445L15.1696 17.9443C15.14 17.9656 15.1081 17.9752 15.0732 17.9754C15.0383 17.9752 15.0054 17.9654 14.9753 17.9437L14.9759 17.944L10.4771 14.6469C10.1933 14.439 9.80497 14.439 9.52122 14.6469L5.02216 17.9437C4.99255 17.9654 4.95993 17.9752 4.92481 17.9754C4.89013 17.9752 4.85782 17.9656 4.82833 17.944C4.7845 17.912 4.76075 17.8625 4.76048 17.8114L4.76876 17.7605L4.76899 17.7597L6.51392 12.4624C6.62458 12.1261 6.50505 11.7592 6.21735 11.5527L1.68466 8.29805L1.68438 8.29778C1.64067 8.26715 1.61626 8.21688 1.61595 8.16461L1.6238 8.11489C1.64559 8.0466 1.7095 8.00055 1.78028 8.00082H7.37052C7.72212 8.00082 8.03282 7.7741 8.14028 7.43922L9.84278 2.13825C9.86438 2.07051 9.92833 2.02418 9.99911 2.0245C10.0696 2.02418 10.1337 2.07055 10.1554 2.13852L11.8577 7.43922C11.9651 7.7741 12.2759 8.00082 12.6275 8.00082H18.2177C18.2885 8.00055 18.3524 8.0466 18.3741 8.11489L18.382 8.16461C18.3817 8.21688 18.3575 8.26688 18.3136 8.29805Z" fill="white"/>
</g>
<defs>
<clipPath id="clip0">
<rect width="20" height="20" fill="white"/>
</clipPath>
</defs>
</svg>
