<svg width="20" height="20" viewBox="0 0 20 20" fill="none" xmlns="http://www.w3.org/2000/svg">
<path d="M19.1182 6.29837H19.1175L11.908 0.632816C11.3741 0.212269 10.6825 -0.000895611 9.99963 2.82818e-06C9.31678 -0.000895611 8.62518 0.212269 8.09057 0.632816L0.881815 6.29837C0.319009 6.74045 1.32193e-06 7.35869 1.32193e-06 8.00517V17.6604C-0.000744241 18.3035 0.31393 18.8942 0.817418 19.3148C1.31872 19.7368 2.02337 20.0003 2.79088 20H17.2091C17.9759 20.0003 18.6805 19.7368 19.1826 19.3148C19.6853 18.8945 20.0007 18.3035 20 17.6604V8.00517C20 7.35814 19.6802 6.74048 19.1182 6.29837ZM17.7777 17.6605C17.777 17.7951 17.7155 17.9082 17.6106 17.9973C17.5043 18.0852 17.369 18.1368 17.2092 18.1371H12.4693V13.9976H7.53065V18.1371H2.79088C2.6303 18.1365 2.49503 18.0852 2.38869 17.9976C2.2838 17.9085 2.22229 17.795 2.22229 17.6605V8.00517C2.22229 7.87299 2.28669 7.74775 2.40169 7.65767L9.61114 1.99184C9.72256 1.9045 9.85708 1.86356 9.99958 1.86298C10.1421 1.8636 10.2767 1.90454 10.3881 1.99153L17.5976 7.65709V7.6574C17.7126 7.74775 17.7777 7.87357 17.7777 8.00517V17.6605H17.7777Z" fill="white"/>
</svg>
