<svg width="20" height="20" viewBox="0 0 20 20" fill="none" xmlns="http://www.w3.org/2000/svg">
<g clip-path="url(#clip0)">
<path d="M17.0644 2.92158C15.2584 1.11467 12.7557 -0.000858894 10.0002 4.96191e-07C7.24848 -0.000312009 4.74672 1.11018 2.94238 2.91536C1.1302 4.72649 -0.00058571 7.23196 2.27602e-07 9.99943C-0.00027321 12.7593 1.12004 15.2631 2.92914 17.0711C4.73684 18.8799 7.24059 20.0003 10.0004 20C10.8292 20 11.6309 19.893 12.3966 19.7037L12.5676 19.6614L12.5743 19.6541C12.5743 19.6541 12.5741 19.6546 12.5743 19.6546L19.6546 12.5742C19.6538 12.5742 19.6532 12.574 19.6524 12.574L19.662 12.5649L19.7042 12.3945C19.8927 11.63 20.0003 10.8282 20 9.99943C20.0006 7.23591 18.8749 4.73153 17.0644 2.92158ZM18.6366 11.8748C18.5968 11.8829 18.5448 11.8914 18.4813 11.8967C18.3664 11.9077 18.2185 11.9114 18.0495 11.908L18.0396 11.9077H18.0453C17.5281 11.9038 16.7827 11.8328 15.9421 11.968L15.9432 11.9677C15.0964 12.101 14.1502 12.4827 13.3268 13.3087L13.3194 13.3157L13.318 13.3174L13.3124 13.323L13.3113 13.3242C12.6847 13.9502 12.3059 14.6488 12.1084 15.3237C11.8126 16.3326 11.8918 17.2529 11.9047 17.8907L11.905 17.8935C11.9152 18.209 11.907 18.4715 11.8811 18.6048C11.8786 18.6183 11.8763 18.6256 11.8737 18.6372C11.267 18.7693 10.6427 18.8462 10.0002 18.8462C7.55555 18.8462 5.34758 17.8571 3.74496 16.2553C2.14293 14.6527 1.15418 12.4444 1.15359 9.99943C1.15418 7.54916 2.15109 5.33947 3.7582 3.7312C5.35543 2.13476 7.56117 1.15385 10.0002 1.15358C12.4416 1.15385 14.6485 2.13867 16.2486 3.73768C17.8529 5.3431 18.8459 7.55201 18.8465 9.99947C18.8461 10.6423 18.7693 11.2677 18.6366 11.8748Z" fill="white"/>
<path d="M8.65447 8.6577C8.639 8.6304 8.61591 8.61485 8.58208 8.62165L7.97361 8.74137C7.93978 8.74786 7.92431 8.77067 7.92036 8.80196L7.41724 12.2109C7.41329 12.2419 7.42681 12.2593 7.46064 12.2526L8.09306 12.1283C8.12685 12.1216 8.14322 12.1036 8.14599 12.0675L8.21669 11.457L9.36603 11.2311L9.6672 11.7683C9.68353 11.8007 9.7058 11.8111 9.73963 11.8046L10.3672 11.681C10.4011 11.6745 10.4067 11.6531 10.3915 11.626L8.65447 8.6577ZM8.29587 10.8144L8.44154 9.59182L8.45615 9.589L9.05419 10.6654L8.29587 10.8144Z" fill="white"/>
<path d="M5.77236 10.5333L5.59408 10.5431C5.20642 10.5643 5.04783 10.4699 5.01095 10.2817C4.97009 10.0741 5.09009 9.89491 5.37998 9.83803C5.65013 9.78479 5.90873 9.8242 6.1924 9.93889C6.21888 9.94878 6.24224 9.9392 6.25662 9.91131L6.4651 9.4138C6.48256 9.37521 6.47408 9.35716 6.44115 9.34333C6.12424 9.18532 5.69295 9.13431 5.25857 9.21997C4.54865 9.35943 4.17372 9.84959 4.29232 10.4533C4.40642 11.0327 4.83966 11.2731 5.5242 11.2339L5.70279 11.224C6.10392 11.2004 6.24365 11.2981 6.28197 11.4913C6.32736 11.7232 6.16533 11.9204 5.82279 11.9877C5.47521 12.0562 5.14814 11.95 4.89658 11.8187C4.86896 11.8041 4.83994 11.8097 4.82529 11.8382L4.54107 12.3303C4.52216 12.3638 4.5388 12.396 4.56189 12.4115C4.86611 12.6073 5.40334 12.7123 5.91517 12.6115C6.7651 12.4444 7.11807 11.9185 7.00143 11.3247C6.88455 10.7308 6.46619 10.4922 5.77236 10.5333Z" fill="white"/>
<path d="M12.9425 10.5178L11.494 10.8026C11.4749 10.8063 11.4633 10.7984 11.4594 10.7793L10.9531 8.20554C10.9475 8.17624 10.9247 8.16074 10.8956 8.16667L10.2824 8.28726C10.2533 8.29289 10.2376 8.31597 10.2432 8.34531L10.87 11.532C10.8759 11.5607 10.899 11.5765 10.928 11.5709L13.067 11.15C13.0963 11.1444 13.1115 11.1213 13.1058 11.0923L13.0005 10.5562C12.9949 10.5271 12.9718 10.5119 12.9425 10.5178Z" fill="white"/>
<path d="M15.5694 10.0209L14.1544 10.2989C14.1353 10.3029 14.1234 10.2953 14.1197 10.2761L13.986 9.59498C13.982 9.57584 13.9899 9.56428 14.009 9.56033L15.1874 9.32877C15.2161 9.32314 15.2319 9.30002 15.226 9.27103L15.1255 8.75915C15.1198 8.7304 15.0964 8.71493 15.0677 8.72059L13.8896 8.95216C13.8705 8.9561 13.8587 8.94821 13.8547 8.92903L13.7265 8.27715C13.7229 8.25746 13.7308 8.24617 13.7499 8.24222L15.1649 7.96386C15.1937 7.95823 15.2091 7.93511 15.2035 7.90612L15.1021 7.38979C15.0962 7.36049 15.0731 7.34498 15.0444 7.35088L12.9389 7.76471C12.9099 7.77065 12.8944 7.79347 12.9003 7.82276L13.5269 11.0094C13.5325 11.0384 13.5556 11.0542 13.5846 11.0483L15.69 10.6345C15.7188 10.6286 15.7343 10.6054 15.7286 10.5764L15.6272 10.0598C15.6212 10.0307 15.5982 10.015 15.5694 10.0209Z" fill="white"/>
</g>
<defs>
<clipPath id="clip0">
<rect width="20" height="20" fill="white"/>
</clipPath>
</defs>
</svg>
