<svg width="157" height="210" viewBox="0 0 157 210" fill="none" xmlns="http://www.w3.org/2000/svg">
<path d="M139.43 47.4287L156.72 37.3894V141.389L139.137 151.612L139.43 47.4287Z" fill="#FFB547"/>
<path d="M139.43 47.4286L139.137 151.612L74.372 114.223L74.6697 10.0392L139.43 47.4286Z" fill="#FFB547"/>
<path d="M151.185 37.2174L139.082 44.2751L78.901 9.46894L90.9699 2.45319L151.185 37.2174Z" fill="#F4F6F9"/>
<path opacity="0.2" d="M153.583 54.9979L142.118 61.6195L142.324 133.941L153.789 127.319L153.583 54.9979Z" fill="#D2D4DC"/>
<path d="M156.72 37.3894L154.112 38.9074L142.039 45.9232L139.426 47.4412L136.503 45.7513L74.6655 10.0477L77.2781 8.52961L139.485 43.2016L150.656 36.9155L89.347 1.51805L91.9554 0L153.793 35.7036L156.72 37.3894Z" fill="#FFBF60"/>
<path d="M121.847 57.6566L139.137 47.6174V151.617L121.553 161.84L121.847 57.6566Z" fill="#1A237E"/>
<path d="M121.847 57.6567L121.553 161.84L56.7886 124.451L57.0863 20.2673L121.847 57.6567Z" fill="#242D86"/>
<path d="M133.601 47.4454L121.499 54.5031L61.3176 19.697L73.3865 12.6812L133.601 47.4454Z" fill="#F4F6F9"/>
<path opacity="0.2" d="M136 65.226L124.535 71.8475L124.74 144.169L136.205 137.547L136 65.226Z" fill="#C1C4D3"/>
<path d="M139.137 47.6173L136.528 49.1354L124.455 56.1511L121.843 57.6692L118.92 55.9792L57.0821 20.2756L59.6947 18.7576L121.901 53.4296L133.073 47.1435L71.7636 11.746L74.372 10.228L136.21 45.9316L139.137 47.6173Z" fill="#1A237E"/>
<path d="M142.542 97.5663L144.55 96.3963L144.236 207.558L142.223 208.728L142.542 97.5663Z" fill="#252935"/>
<path d="M75.4539 56.5035L6.35737 16.6105L4.34448 17.7805L73.441 57.6735L142.542 97.5664L144.55 96.3964L75.4539 56.5035Z" fill="#2B303F"/>
<path d="M142.542 97.5664L142.223 208.728L73.1265 168.835L62.0221 159.689L60.1308 161.329L4.02997 128.938L4.34448 17.7805L73.441 57.6735L142.542 97.5664Z" fill="#3A4151"/>
<path d="M75.11 62.2611L0.293546 30.7133L0 134.893L51.186 164.445C52.0621 164.949 53.0355 165.262 54.0417 165.362C55.0479 165.462 56.0638 165.347 57.022 165.024C57.9802 164.701 58.8588 164.178 59.5994 163.49C60.34 162.801 60.9256 161.963 61.3175 161.031V170.299L129.525 209.676L129.819 105.492L75.11 62.2611Z" fill="#F4F6F9"/>
<path d="M61.3176 62.7895V170.299L129.525 209.676L129.819 105.492L61.3176 62.7895Z" fill="#DADCE5"/>
<path d="M122.061 176.253L122.056 178.115L74.85 150.862L74.8542 149L122.061 176.253Z" fill="#C1C4D3"/>
<path d="M122.086 167.862L122.077 169.724L74.8752 142.471L74.8794 140.609L122.086 167.862Z" fill="#C1C4D3"/>
<path d="M122.132 151.08L122.128 152.938L74.9213 125.684L74.9297 123.826L122.132 151.08Z" fill="#C1C4D3"/>
<path d="M122.157 142.684L122.149 144.55L74.9465 117.297L74.9507 115.435L122.157 142.684Z" fill="#C1C4D3"/>
<path d="M122.178 134.297L122.174 136.155L74.9716 108.901L74.9758 107.044L122.178 134.297Z" fill="#C1C4D3"/>
<path d="M122.107 159.471L122.103 161.329L74.9004 134.079L74.9046 132.217L122.107 159.471Z" fill="#C1C4D3"/>
<path d="M122.035 184.645L122.031 186.507L74.829 159.253L74.8332 157.391L122.035 184.645Z" fill="#C1C4D3"/>
<path d="M122.014 193.04L122.006 194.898L74.8039 167.644L74.8081 165.786L122.014 193.04Z" fill="#C1C4D3"/>
<path d="M122.228 117.511L122.22 119.377L75.0178 92.1231L75.022 90.2612L122.228 117.511Z" fill="#C1C4D3"/>
<path d="M122.249 109.119L122.245 110.981L75.0429 83.7277L75.0471 81.8658L122.249 109.119Z" fill="#C1C4D3"/>
<path d="M122.203 125.906L122.199 127.764L74.9926 100.51L75.001 98.6525L122.203 125.906Z" fill="#C1C4D3"/>
<path d="M53.9705 153.814L53.9663 155.676L6.76413 128.422L6.76832 126.564L53.9705 153.814Z" fill="#C1C4D3"/>
<path d="M53.9957 145.423L53.9915 147.28L6.7851 120.027L6.79348 118.169L53.9957 145.423Z" fill="#C1C4D3"/>
<path d="M54.067 120.249L54.0628 122.107L6.85638 94.8532L6.86058 92.9954L54.067 120.249Z" fill="#C1C4D3"/>
<path d="M54.1634 86.6841L54.155 88.5419L6.95285 61.2882L6.95704 59.4305L54.1634 86.6841Z" fill="#C1C4D3"/>
<path d="M54.1844 78.2888L54.1802 80.1507L6.978 52.897L6.98219 51.0351L54.1844 78.2888Z" fill="#C1C4D3"/>
<path d="M54.2095 69.8975L54.2053 71.7595L6.99896 44.5058L7.00735 42.6439L54.2095 69.8975Z" fill="#C1C4D3"/>
<path d="M54.1382 95.0754L54.134 96.9331L6.92767 69.6794L6.93606 67.8217L54.1382 95.0754Z" fill="#C1C4D3"/>
<path d="M54.0418 128.636L54.0376 130.498L6.83542 103.249L6.83961 101.382L54.0418 128.636Z" fill="#C1C4D3"/>
<path d="M54.0921 111.858L54.0838 113.716L6.88156 86.4619L6.88575 84.6042L54.0921 111.858Z" fill="#C1C4D3"/>
<path d="M54.1146 103.462L54.1104 105.324L6.9082 78.0749L6.9124 76.2087L54.1146 103.462Z" fill="#C1C4D3"/>
<path d="M54.0208 137.032L54.0125 138.893L6.81027 111.64L6.81447 109.778L54.0208 137.032Z" fill="#C1C4D3"/>
<path d="M0.293549 30.7133L10.358 24.8676L64.9198 56.4992L63.1333 57.5392C60.621 58.9966 57.7682 59.7642 54.8637 59.7642C51.9593 59.7642 49.1064 58.9966 46.5941 57.5392L0.293549 30.7133Z" fill="#E6E9EF"/>
<path d="M64.9114 56.4992L139.875 99.6505L129.81 105.492L64.9324 68.1446C63.9057 67.5592 63.0518 66.713 62.4572 65.6916C61.8626 64.6702 61.5483 63.5098 61.5462 62.328C61.5441 61.1461 61.8542 59.9847 62.4451 58.9611C63.036 57.9376 63.8868 57.0883 64.9114 56.4992Z" fill="#E6E9EF"/>
<path d="M129.819 105.492L139.875 99.6505L139.577 203.834L129.525 209.676L129.819 105.492Z" fill="#C1C4D3"/>
<path d="M83.8367 60.8647C82.5493 62.9992 81.1906 64.4334 79.4629 66.224C79.2155 66.4756 78.5865 66.2576 78.3139 66.1779C77.8232 66.0353 77.5381 65.8424 77.0055 66.0521C76.7079 66.1919 76.4194 66.3501 76.1416 66.526C75.7126 66.7696 75.2508 66.9504 74.7704 67.0627C74.921 66.7733 75.089 66.4932 75.2736 66.224C76.062 65.075 77.2152 64.274 78.1084 63.2005C79.0685 62.0592 79.9445 60.8497 80.7293 59.5815C81.8196 57.3422 83.0064 53.6141 83.4971 52.138C84.3358 49.6471 85.1199 45.961 85.7196 44.2332C86.3193 42.5055 87.397 41.9058 88.458 41.7171C89.716 41.4949 90.4751 41.8723 90.1731 43.34C89.6489 45.9232 87.0993 55.9122 83.8367 60.8647Z" fill="#FFCEA9"/>
<path d="M86.7764 100.682C85.7196 101.521 84.1638 100.758 84.0842 100.837C82.8435 101.986 81.5431 103.068 80.1884 104.079C79.53 104.599 78.511 105.291 78.6913 106.285C79.0226 108.063 81.87 107.518 82.9435 106.972C84.0171 106.427 84.8977 105.526 85.9125 104.876C86.638 104.423 87.3509 104.192 87.4641 103.274C87.5354 102.741 86.9609 100.644 86.7764 100.682Z" fill="white"/>
<path d="M87.4515 102.926C87.3132 103.802 86.6128 104.045 85.8874 104.49C84.8558 105.136 83.9458 106.058 82.8722 106.587C81.8784 107.09 79.4 107.589 78.7039 106.318C79.0813 108.033 81.8825 107.497 82.9435 106.956C84.0045 106.415 84.8977 105.509 85.9125 104.859C86.638 104.406 87.3509 104.175 87.4641 103.257C87.4711 103.146 87.4669 103.035 87.4515 102.926Z" fill="#9C73FF"/>
<g filter="url(#filter0_d)">
<path d="M76.0661 94.5135C75.0136 95.3731 73.1642 94.4338 73.0846 94.5135C71.9871 95.6293 70.8249 96.6795 69.6039 97.6586C68.9456 98.1744 67.9265 98.8663 68.1069 99.8644C68.4382 101.642 71.2855 101.093 72.3633 100.552C73.441 100.011 74.3133 99.1053 75.3323 98.4554C76.0578 98.0066 76.7707 97.7718 76.8839 96.8576C76.951 96.3209 76.2549 94.4925 76.0661 94.5135Z" fill="white"/>
</g>
<path d="M76.8503 96.627C76.7119 97.5076 76.0116 97.7467 75.2861 98.1954C74.2545 98.837 73.3445 99.7638 72.271 100.292C71.2771 100.795 68.7988 101.294 68.1026 100.024C68.4842 101.739 71.2813 101.202 72.3423 100.665C73.4032 100.129 74.2965 99.2186 75.3113 98.5686C76.0368 98.1199 76.7497 97.8851 76.8629 96.9709C76.8705 96.8561 76.8663 96.7409 76.8503 96.627Z" fill="#9C73FF"/>
<path d="M100.892 66.8446C102.062 74.1539 98.795 76.8797 94.6015 78.4355C91.5654 79.551 87.2251 81.2704 87.2251 81.2704C87.2251 81.2704 87.2838 82.8765 87.3173 86.4745C87.3467 89.6448 86.9315 101.223 86.9315 101.223C86.9315 101.223 85.1828 102.129 83.6983 101.185C83.6983 101.185 81.9958 92.3161 81.6351 88.3197C81.1445 82.8932 80.3142 79.3455 80.5909 78.1797C80.8342 77.1481 86.7638 74.2336 88.6425 72.6736L76.2255 76.8378C76.4723 78.1851 76.5917 79.5526 76.5819 80.9223C76.4687 85.2248 76.2339 94.5386 76.2339 94.5386C76.2339 94.5386 74.5271 95.7715 73.0762 94.5638C73.0762 94.5638 69.952 76.1123 70.3294 73.6801C70.6901 71.3611 81.6519 66.6266 83.56 64.9953C83.8979 64.7222 84.2893 64.5229 84.7089 64.4102C85.1285 64.2975 85.5671 64.274 85.9964 64.3411L100.892 66.8446Z" fill="#1A237E"/>
<path d="M96.5682 39.3268C96.5682 39.3268 96.3921 42.8074 96.4676 43.1009C96.5431 43.3945 98.0653 44.4303 98.5098 44.7784C98.9544 45.1264 96.1028 47.957 94.7357 48.5903C93.3686 49.2235 88.9612 47.5545 88.8648 45.3948C88.7683 43.2351 89.6196 41.4277 90.2905 41.3355C90.9615 41.2432 96.5682 39.3268 96.5682 39.3268Z" fill="#FFCEA9"/>
<path d="M96.9582 43.7174C96.9582 43.7174 94.4421 47.4916 90.907 47.8354C89.7957 46.7409 89.6951 42.841 91.2341 41.5955C91.2341 41.5955 89.8209 40.4548 88.8522 40.6771C87.8121 41.3058 87.038 42.2932 86.6757 43.4532C85.775 46.0409 85.3488 48.7699 85.4177 51.509C85.4764 55.2034 85.4177 64.5424 85.4177 64.5424C85.4177 64.5424 85.9461 68.1111 89.1289 69.8891C91.676 71.327 94.6754 71.7394 97.516 71.0424C99.3024 70.623 99.965 69.625 100.581 68.3292C100.422 65.7418 99.3947 60.4118 99.8266 57.1576C100.259 53.9035 100.946 51.4712 101.127 48.8377C101.307 46.2042 100.779 46.2629 99.4492 45.3235C98.6586 44.7289 97.8261 44.1921 96.9582 43.7174Z" fill="#F4F4F4"/>
<path d="M97.7718 75.0555L97.7676 75.521L86.0425 82.3355V81.87L97.7718 75.0555Z" fill="#1F232B"/>
<path d="M86.0425 81.87V82.3354L67.8091 71.8097L67.8133 71.3442L86.0425 81.87Z" fill="#2D323E"/>
<path d="M97.7718 75.0556L86.0425 81.87L67.8133 71.3443L79.5384 64.5298L97.7718 75.0556Z" fill="#323846"/>
<path d="M96.5263 73.4788L85.8119 79.7062L77.8819 75.5923L88.978 69.1133L96.5263 73.4788Z" fill="#DADCE5"/>
<path d="M88.349 69.3482L88.5628 70.275L77.4752 76.2801L69.1511 70.0779L79.8613 63.8505L87.5774 68.3082C87.7709 68.4187 87.9395 68.5682 88.0723 68.7472C88.2051 68.9262 88.2993 69.1309 88.349 69.3482Z" fill="#F4F6F9"/>
<path d="M88.6047 69.3607L88.6006 70.753L78.121 76.5316L77.8945 75.5839L88.6047 69.3607Z" fill="#DADCE5"/>
<path d="M85.8119 79.7061V81.1026L77.4835 76.2926C77.4826 76.1504 77.5193 76.0105 77.5899 75.8871C77.6606 75.7637 77.7627 75.6612 77.8858 75.59C78.009 75.5189 78.1487 75.4816 78.291 75.482C78.4332 75.4824 78.5727 75.5205 78.6955 75.5923L85.8119 79.7061Z" fill="#E6E9EF"/>
<path d="M77.4752 75.6342V76.28L69.1469 71.4743V70.0778L76.8252 74.5104C77.0228 74.624 77.1869 74.7877 77.3011 74.985C77.4152 75.1823 77.4752 75.4063 77.4752 75.6342Z" fill="#E6E9EF"/>
<path d="M85.0068 69.7759L84.8097 69.8891L78.5151 66.2576L78.6158 66.1988L78.7122 66.1401L85.0068 69.7759Z" fill="#C1C4D3"/>
<path d="M86.2145 69.0714L86.0174 69.1888L79.7229 65.553L79.8193 65.4985L79.92 65.4398L86.2145 69.0714Z" fill="#C1C4D3"/>
<path d="M83.8032 70.4762L83.5977 70.5937L77.3032 66.9579L77.4081 66.8992L77.5087 66.8405L83.8032 70.4762Z" fill="#C1C4D3"/>
<path d="M82.5955 71.1765L82.3942 71.2939L76.0997 67.6582L76.1961 67.6037L76.2968 67.545L82.5955 71.1765Z" fill="#C1C4D3"/>
<path d="M81.3877 71.8769L81.1864 71.9943L74.892 68.3627L74.9926 68.304L75.0933 68.2453L81.3877 71.8769Z" fill="#C1C4D3"/>
<path d="M80.18 72.5814L79.9787 72.6988L73.6801 69.063L73.7849 69.0043L73.8855 68.9456L80.18 72.5814Z" fill="#C1C4D3"/>
<path d="M78.9723 73.2817L78.771 73.3991L72.4765 69.7633L72.5771 69.7046L72.6778 69.6501L78.9723 73.2817Z" fill="#C1C4D3"/>
<path d="M77.7645 73.982L77.5632 74.1036L71.2688 70.4678L71.3694 70.4091L71.4701 70.3504L77.7645 73.982Z" fill="#C1C4D3"/>
<path d="M94.2828 73.8813L94.0815 73.9946L87.7913 70.363L87.8919 70.3043L87.9925 70.2498L94.2828 73.8813Z" fill="#C1C4D3"/>
<path d="M93.0792 74.5817L92.8737 74.6991L86.5835 71.0675L86.6841 71.0088L86.7848 70.9501L93.0792 74.5817Z" fill="#C1C4D3"/>
<path d="M91.8673 75.282L91.6702 75.3994L85.3757 71.7678L85.4764 71.7091L85.577 71.6504L91.8673 75.282Z" fill="#C1C4D3"/>
<path d="M90.6596 75.9865L90.4625 76.0998L84.168 72.4681L84.2729 72.4094L84.3693 72.3549L90.6596 75.9865Z" fill="#C1C4D3"/>
<path d="M88.2441 77.3871L88.047 77.5045L81.7567 73.873L81.8532 73.8143L81.9538 73.7556L88.2441 77.3871Z" fill="#C1C4D3"/>
<path d="M89.456 76.6868L89.2505 76.8042L82.9603 73.1727L83.0609 73.1139L83.1616 73.0552L89.456 76.6868Z" fill="#C1C4D3"/>
<path d="M87.0364 78.0917L86.8393 78.2091L80.5448 74.5733L80.6454 74.5146L80.7461 74.4601L87.0364 78.0917Z" fill="#C1C4D3"/>
<path d="M85.8328 78.792L85.6273 78.9094L79.3371 75.2778L79.4377 75.2191L79.5426 75.1604L85.8328 78.792Z" fill="#C1C4D3"/>
<path d="M96.5263 73.4788V74.8752L85.8328 81.1026V79.7062L96.5263 73.4788Z" fill="#C1C4D3"/>
<path d="M92.9073 73.7178C93.528 73.4117 93.9809 72.9462 94.8867 72.5814C95.5198 72.3797 96.0951 72.0288 96.5641 71.5582C97.1805 70.9501 98.1953 68.6563 98.9208 66.4169C99.6423 63.8937 99.9259 61.2654 99.7595 58.6463C99.4534 55.5054 98.3211 51.098 98.036 49.3116C97.7508 47.5251 98.3337 46.7955 99.1724 46.1203C100.158 45.3403 101.521 45.7009 102.246 48.2171C103.185 51.7182 103.73 55.3135 103.869 58.9357C103.898 61.6258 103.483 64.3023 102.64 66.8572C101.881 69.2308 100.892 70.9375 99.6211 73.0804C99.2773 73.6633 99.164 74.1833 98.6357 75.3743C98.124 76.571 97.3297 77.6258 96.3208 78.4481C95.436 79.0855 95.0167 79.1736 94.8112 79.052C94.6057 78.9304 94.6015 78.6326 94.9747 78.2804C95.6006 77.7881 96.1344 77.189 96.5515 76.5107C96.5515 76.5107 95.7799 77.2865 95.2725 77.7101C94.8236 78.0896 94.3257 78.407 93.7922 78.6536C93.2764 78.88 92.5551 78.4439 92.9241 78.0917C93.2931 77.7394 93.6664 77.5759 94.4044 76.9343C94.7986 76.5977 95.1506 76.2147 95.4528 75.7936C94.9354 76.1917 94.3871 76.5479 93.8131 76.8588C93.365 77.14 92.8451 77.2857 92.3161 77.2781C92.0435 77.2781 91.7122 76.8881 92.2238 76.5149C92.7354 76.1417 93.4064 75.953 94.1822 75.1772C94.7483 74.6152 95.067 74.1414 94.9076 74.1288C94.7483 74.1162 94.4422 74.4727 93.7796 74.6823C93.117 74.892 92.4041 74.6823 92.3203 74.3385C92.2364 73.9946 92.2867 74.024 92.9073 73.7178Z" fill="#FFCEA9"/>
<path d="M88.6886 34.1352C89.108 31.4346 91.0538 29.384 93.8383 29.5224C94.5463 29.5619 95.2396 29.7411 95.8782 30.0495C96.5168 30.3579 97.0881 30.7896 97.5593 31.3196C98.0304 31.8496 98.3922 32.4676 98.6237 33.1379C98.8552 33.8082 98.9519 34.5177 98.9082 35.2255C98.8623 36.0454 98.6271 36.8434 98.2212 37.5571C97.8152 38.2709 97.2494 38.8809 96.5682 39.3394C96.4744 39.7484 96.3337 40.1452 96.1489 40.5219C95.1634 41.6752 92.186 42.3881 91.3263 42.2665C90.2276 42.1071 89.6489 41.65 89.108 40.4465C88.1728 38.3078 88.4832 35.473 88.6886 34.1352Z" fill="#FFCEA9"/>
<path d="M96.5682 39.3226L96.3124 36.9659C96.3124 36.9659 98.2415 31.9798 93.6873 32.9359C90.6847 33.5691 89.9131 33.8417 89.0157 31.8288C88.1183 29.8159 91.3264 28.0001 95.155 28.5034C96.4733 28.6418 97.6916 29.2704 98.5684 30.2645C99.4452 31.2586 99.9167 32.5458 99.8895 33.8711C99.8056 35.3556 99.3863 38.3539 96.5682 39.3226Z" fill="#1A1A1A"/>
<path d="M104.36 52.8593C104.36 52.8593 101.877 55.3293 98.9376 54.6164C98.5182 54.3312 97.5076 48.5567 97.5076 48.5567C97.5076 48.5567 97.5076 45.3571 99.9608 45.441C102.414 45.5248 104.36 52.8593 104.36 52.8593Z" fill="#EDEDED"/>
<path d="M85.6022 48.0661C85.6022 48.0661 84.3064 48.0032 83.7697 47.2274C83.8661 45.9358 85.5225 41.0252 88.8522 40.6603C87.9393 41.2948 87.2149 42.1641 86.7554 43.1765C86.1641 44.6693 85.6022 48.0661 85.6022 48.0661Z" fill="#EDEDED"/>
<path opacity="0.4" d="M87.3257 208.137C94.8273 208.137 100.909 204.626 100.909 200.295C100.909 195.964 94.8273 192.453 87.3257 192.453C79.8241 192.453 73.7429 195.964 73.7429 200.295C73.7429 204.626 79.8241 208.137 87.3257 208.137Z" fill="#D6D8E5"/>
<path d="M107.442 172.228L71.0843 172.031L75.6971 198.622C75.5965 200.718 76.909 202.815 79.6558 204.384C84.9606 207.449 93.5573 207.449 98.8621 204.384C101.273 202.991 102.578 201.209 102.796 199.385L107.442 172.228Z" fill="#A78D39"/>
<path d="M89.2631 182.196C99.3146 182.196 107.463 177.493 107.463 171.691C107.463 165.889 99.3146 161.186 89.2631 161.186C79.2116 161.186 71.0633 165.889 71.0633 171.691C71.0633 177.493 79.2116 182.196 89.2631 182.196Z" fill="#EFDA86"/>
<path d="M89.2632 179.902C84.8054 179.902 80.6455 178.92 77.5549 177.134C74.9046 175.582 73.3865 173.612 73.3865 171.691C73.3865 169.77 74.9087 167.799 77.5591 166.269C80.6497 164.486 84.8054 163.505 89.2673 163.505C93.7292 163.505 97.885 164.486 100.976 166.269C103.626 167.799 105.148 169.779 105.148 171.695C105.148 173.612 103.63 175.587 100.976 177.113C97.8808 178.9 93.7251 179.902 89.2632 179.902Z" fill="#28221C"/>
<path d="M97.0924 163.413C97.3516 159.877 96.7896 156.33 95.4503 153.047C94.111 149.765 92.0308 146.837 89.3722 144.492V144.467L89.3177 144.416V144.517C86.658 146.861 84.5768 149.789 83.2368 153.072C81.8967 156.354 81.3342 159.902 81.5932 163.438L71.1975 162.457C75.5881 179.004 89.3847 177.579 89.3847 177.579V177.549C90.4247 177.629 103.295 178.296 107.505 162.419L97.0924 163.413Z" fill="#99B524"/>
<path d="M89.3722 177.591C89.3722 177.591 88.4412 164.709 71.1388 156.032C71.1388 156.032 67.0417 177.436 89.3722 177.591Z" fill="#A6CE28"/>
<path d="M89.2631 177.591C89.2631 177.591 90.1941 164.709 107.497 156.032C107.497 156.032 111.594 177.436 89.2631 177.591Z" fill="#A6CE28"/>
<path d="M89.347 1.51807V3.39676L90.9699 2.45322L89.347 1.51807Z" fill="#C1C4D3"/>
<path d="M71.7636 11.746V13.6247L73.3865 12.6812L71.7636 11.746Z" fill="#C1C4D3"/>
<defs>
<filter id="filter0_d" x="64.0858" y="94.5086" width="16.8026" height="14.57" filterUnits="userSpaceOnUse" color-interpolation-filters="sRGB">
<feFlood flood-opacity="0" result="BackgroundImageFix"/>
<feColorMatrix in="SourceAlpha" type="matrix" values="0 0 0 0 0 0 0 0 0 0 0 0 0 0 0 0 0 0 127 0"/>
<feOffset dy="4"/>
<feGaussianBlur stdDeviation="2"/>
<feColorMatrix type="matrix" values="0 0 0 0 0 0 0 0 0 0 0 0 0 0 0 0 0 0 0.25 0"/>
<feBlend mode="normal" in2="BackgroundImageFix" result="effect1_dropShadow"/>
<feBlend mode="normal" in="SourceGraphic" in2="effect1_dropShadow" result="shape"/>
</filter>
</defs>
</svg>
