<svg width="25" height="25" viewBox="0 0 25 25" fill="none" xmlns="http://www.w3.org/2000/svg">
<path d="M25 0H0V25H25V0Z" fill="#41C9B4"/>
<path fill-rule="evenodd" clip-rule="evenodd" d="M11.2743 10.6061V9.70739C11.2743 9.54363 11.2828 9.48901 11.308 9.405C11.3754 9.17405 11.6029 9.0019 11.8724 9.0019C12.142 9.0019 12.3694 9.17824 12.4368 9.405C12.4621 9.48901 12.4705 9.54363 12.4705 9.70739V11.0932C12.4705 11.1772 12.4705 11.2611 12.4537 11.3368C12.4074 11.5467 12.2178 11.7357 12.0072 11.7819C11.9314 11.7987 11.8471 11.7987 11.7629 11.7987H10.3729C10.2087 11.7987 10.1539 11.7903 10.0696 11.7651C9.84217 11.6979 9.6653 11.4711 9.6653 11.2024C9.6653 10.9336 9.84217 10.7068 10.0696 10.6396C10.1539 10.6144 10.2087 10.6061 10.3729 10.6061H11.2743ZM16.2277 16.8884H8.77234V10.3415C8.77234 10.2575 8.80183 10.1861 8.86081 10.1273L10.7941 8.19975C10.8531 8.14102 10.9247 8.11162 11.0089 8.11162H16.2277V16.8884ZM17.0743 6.63338C17.0364 6.62919 16.9858 6.625 16.889 6.625H10.8109C10.7436 6.625 10.6762 6.62919 10.6298 6.63338C10.3518 6.65859 10.1033 6.78877 9.90535 6.98613L7.64346 9.24123C7.44558 9.43866 7.31494 9.68637 7.28973 9.96356C7.28545 10.0097 7.28125 10.0769 7.28125 10.1441V17.5477C7.28125 17.6443 7.28545 17.6947 7.28973 17.7325C7.32335 18.0475 7.60977 18.3329 7.92568 18.3665C7.96365 18.3708 8.01415 18.375 8.11103 18.375H16.889C16.9858 18.375 17.0364 18.3708 17.0743 18.3665C17.3902 18.3329 17.6767 18.0475 17.7103 17.7325C17.7145 17.6947 17.7188 17.6443 17.7188 17.5477V7.45229C17.7188 7.3557 17.7145 7.30528 17.7103 7.2675C17.6767 6.95253 17.3902 6.66697 17.0743 6.63338Z" fill="white"/>
</svg>
